<svg width="269" height="137" viewBox="0 0 269 137" fill="none" xmlns="http://www.w3.org/2000/svg">
<rect width="269" height="137" rx="27" fill="url(#paint0_linear_636_993)"/>
<path d="M55.478 62.46C52.626 62.46 50.142 61.8313 48.026 60.574C45.9407 59.286 44.5147 57.492 43.748 55.192L48.532 52.938C48.808 54.042 49.2373 54.9927 49.82 55.79C50.4027 56.5873 51.1693 57.2007 52.12 57.63C53.0707 58.0287 54.2513 58.228 55.662 58.228C56.858 58.228 57.87 58.0133 58.698 57.584C59.526 57.1547 60.1547 56.5567 60.584 55.79C61.044 55.0233 61.274 54.1493 61.274 53.168C61.274 52.156 61.0747 51.3127 60.676 50.638C60.308 49.9633 59.71 49.4727 58.882 49.166C58.0847 48.8593 57.0573 48.706 55.8 48.706C55.432 48.706 55.0487 48.7213 54.65 48.752C54.282 48.752 53.8833 48.7827 53.454 48.844V44.704C53.73 44.7347 53.9907 44.7653 54.236 44.796C54.512 44.796 54.7727 44.796 55.018 44.796C57.0113 44.796 58.4373 44.3973 59.296 43.6C60.1547 42.8027 60.584 41.5607 60.584 39.874C60.584 38.4327 60.1393 37.3287 59.25 36.562C58.3913 35.7953 57.1493 35.412 55.524 35.412C53.8373 35.412 52.5187 35.8107 51.568 36.608C50.648 37.3747 49.9427 38.494 49.452 39.966L44.944 38.08C45.3733 36.6693 46.094 35.4427 47.106 34.4C48.118 33.3573 49.36 32.56 50.832 32.008C52.3347 31.4253 53.9753 31.134 55.754 31.134C57.9313 31.134 59.7407 31.4867 61.182 32.192C62.654 32.8973 63.7427 33.8633 64.448 35.09C65.184 36.3167 65.552 37.6813 65.552 39.184C65.552 40.3493 65.3833 41.3767 65.046 42.266C64.7087 43.1247 64.2487 43.876 63.666 44.52C63.114 45.1333 62.5007 45.6087 61.826 45.946C61.182 46.2833 60.5227 46.5133 59.848 46.636V46.728C60.7373 46.7587 61.55 46.9427 62.286 47.28C63.0527 47.5867 63.7273 48.0313 64.31 48.614C64.9233 49.166 65.3987 49.8407 65.736 50.638C66.0733 51.4353 66.242 52.3093 66.242 53.26C66.242 55.1 65.782 56.71 64.862 58.09C63.942 59.47 62.6693 60.5433 61.044 61.31C59.4493 62.0767 57.594 62.46 55.478 62.46ZM83.3971 62.46C79.7478 62.46 76.8805 61.1413 74.7951 58.504C72.7405 55.836 71.7131 51.9413 71.7131 46.82C71.7131 41.6987 72.7405 37.8193 74.7951 35.182C76.8805 32.514 79.7478 31.18 83.3971 31.18C87.0771 31.18 89.9445 32.514 91.9991 35.182C94.0845 37.8193 95.1271 41.6987 95.1271 46.82C95.1271 51.9413 94.0845 55.836 91.9991 58.504C89.9445 61.1413 87.0771 62.46 83.3971 62.46ZM83.3971 58.274C84.8691 58.274 86.0958 57.86 87.0771 57.032C88.0891 56.1733 88.8405 54.9007 89.3311 53.214C89.8525 51.4967 90.1131 49.3653 90.1131 46.82C90.1131 44.2747 89.8525 42.1587 89.3311 40.472C88.8405 38.7547 88.0891 37.482 87.0771 36.654C86.0958 35.7953 84.8691 35.366 83.3971 35.366C81.9251 35.366 80.6831 35.7953 79.6711 36.654C78.6898 37.482 77.9538 38.7547 77.4631 40.472C76.9725 42.1587 76.7271 44.2747 76.7271 46.82C76.7271 49.3653 76.9725 51.4967 77.4631 53.214C77.9538 54.9007 78.6898 56.1733 79.6711 57.032C80.6831 57.86 81.9251 58.274 83.3971 58.274ZM112.282 62.46C108.633 62.46 105.765 61.1413 103.68 58.504C101.625 55.836 100.598 51.9413 100.598 46.82C100.598 41.6987 101.625 37.8193 103.68 35.182C105.765 32.514 108.633 31.18 112.282 31.18C115.962 31.18 118.829 32.514 120.884 35.182C122.969 37.8193 124.012 41.6987 124.012 46.82C124.012 51.9413 122.969 55.836 120.884 58.504C118.829 61.1413 115.962 62.46 112.282 62.46ZM112.282 58.274C113.754 58.274 114.981 57.86 115.962 57.032C116.974 56.1733 117.725 54.9007 118.216 53.214C118.737 51.4967 118.998 49.3653 118.998 46.82C118.998 44.2747 118.737 42.1587 118.216 40.472C117.725 38.7547 116.974 37.482 115.962 36.654C114.981 35.7953 113.754 35.366 112.282 35.366C110.81 35.366 109.568 35.7953 108.556 36.654C107.575 37.482 106.839 38.7547 106.348 40.472C105.857 42.1587 105.612 44.2747 105.612 46.82C105.612 49.3653 105.857 51.4967 106.348 53.214C106.839 54.9007 107.575 56.1733 108.556 57.032C109.568 57.86 110.81 58.274 112.282 58.274ZM142.777 35.688V58.964H138.499V35.688H142.777ZM151.931 45.256V49.35H129.299V45.256H151.931ZM58.192 77.64C60.3693 77.64 62.24 78.0233 63.804 78.79C65.3987 79.5567 66.6407 80.6453 67.53 82.056C68.4193 83.4667 68.864 85.1687 68.864 87.162C68.864 89.1247 68.4193 90.8267 67.53 92.268C66.6407 93.6787 65.3987 94.7673 63.804 95.534C62.24 96.3007 60.3693 96.684 58.192 96.684H51.43V108H46.508V77.64H58.192ZM57.41 92.452C59.5873 92.452 61.182 92.0073 62.194 91.118C63.2367 90.198 63.758 88.8793 63.758 87.162C63.758 85.414 63.2367 84.0953 62.194 83.206C61.182 82.286 59.5873 81.826 57.41 81.826H51.43V92.452H57.41ZM74.6578 108V85H78.8438L79.3038 89.14C79.9172 87.6373 80.8218 86.5027 82.0178 85.736C83.2445 84.9387 84.7472 84.54 86.5258 84.54C86.9858 84.54 87.4458 84.586 87.9058 84.678C88.3658 84.7393 88.7492 84.8467 89.0558 85L88.3658 89.324C88.0285 89.2013 87.6452 89.1093 87.2158 89.048C86.8172 88.956 86.2652 88.91 85.5598 88.91C84.6092 88.91 83.6738 89.1707 82.7538 89.692C81.8338 90.1827 81.0672 90.934 80.4538 91.946C79.8712 92.958 79.5798 94.246 79.5798 95.81V108H74.6578ZM103.103 84.54C105.341 84.54 107.319 85.0153 109.037 85.966C110.754 86.9167 112.088 88.2967 113.039 90.106C114.02 91.8847 114.511 94.016 114.511 96.5C114.511 98.984 114.02 101.131 113.039 102.94C112.088 104.719 110.754 106.083 109.037 107.034C107.319 107.985 105.341 108.46 103.103 108.46C100.864 108.46 98.8861 107.985 97.1687 107.034C95.4514 106.083 94.1021 104.719 93.1207 102.94C92.1394 101.131 91.6487 98.984 91.6487 96.5C91.6487 94.016 92.1394 91.8847 93.1207 90.106C94.1021 88.2967 95.4514 86.9167 97.1687 85.966C98.8861 85.0153 100.864 84.54 103.103 84.54ZM103.103 88.404C101.723 88.404 100.542 88.726 99.5607 89.37C98.6101 89.9833 97.8741 90.888 97.3527 92.084C96.8314 93.28 96.5707 94.752 96.5707 96.5C96.5707 98.2173 96.8314 99.6893 97.3527 100.916C97.8741 102.112 98.6101 103.032 99.5607 103.676C100.542 104.289 101.723 104.596 103.103 104.596C104.483 104.596 105.648 104.289 106.599 103.676C107.549 103.032 108.285 102.112 108.807 100.916C109.328 99.6893 109.589 98.2173 109.589 96.5C109.589 94.752 109.328 93.28 108.807 92.084C108.285 90.888 107.549 89.9833 106.599 89.37C105.648 88.726 104.483 88.404 103.103 88.404ZM123.187 81.136C122.113 81.136 121.285 80.8753 120.703 80.354C120.151 79.802 119.875 79.0353 119.875 78.054C119.875 77.0727 120.151 76.3213 120.703 75.8C121.285 75.2787 122.113 75.018 123.187 75.018C124.229 75.018 125.027 75.2787 125.579 75.8C126.161 76.3213 126.453 77.0727 126.453 78.054C126.453 79.0353 126.161 79.802 125.579 80.354C125.027 80.8753 124.229 81.136 123.187 81.136ZM125.625 85V110.024C125.625 111.987 125.257 113.535 124.521 114.67C123.815 115.835 122.88 116.663 121.715 117.154C120.58 117.645 119.369 117.89 118.081 117.89C117.038 117.89 116.087 117.752 115.229 117.476C114.37 117.2 113.649 116.832 113.067 116.372L113.895 112.416C114.324 112.784 114.845 113.091 115.459 113.336C116.041 113.581 116.701 113.704 117.437 113.704C118.418 113.704 119.2 113.382 119.783 112.738C120.396 112.125 120.703 111.067 120.703 109.564V85H125.625ZM143.446 108.46C141.146 108.46 139.122 107.985 137.374 107.034C135.626 106.083 134.261 104.719 133.28 102.94C132.329 101.131 131.854 98.984 131.854 96.5C131.854 94.016 132.329 91.8847 133.28 90.106C134.261 88.2967 135.61 86.9167 137.328 85.966C139.045 85.0153 140.992 84.54 143.17 84.54C145.408 84.54 147.31 85 148.874 85.92C150.438 86.84 151.634 88.0973 152.462 89.692C153.29 91.2867 153.704 93.096 153.704 95.12C153.704 95.672 153.688 96.1933 153.658 96.684C153.627 97.1747 153.581 97.604 153.52 97.972H135.028V94.2H151.358L148.92 94.936C148.92 92.8507 148.398 91.256 147.356 90.152C146.313 89.0173 144.887 88.45 143.078 88.45C141.759 88.45 140.609 88.7567 139.628 89.37C138.646 89.9833 137.895 90.9033 137.374 92.13C136.852 93.326 136.592 94.798 136.592 96.546C136.592 98.2633 136.868 99.72 137.42 100.916C137.972 102.112 138.754 103.017 139.766 103.63C140.778 104.243 141.974 104.55 143.354 104.55C144.887 104.55 146.129 104.259 147.08 103.676C148.03 103.093 148.782 102.281 149.334 101.238L153.244 103.078C152.692 104.182 151.94 105.148 150.99 105.976C150.07 106.773 148.966 107.387 147.678 107.816C146.39 108.245 144.979 108.46 143.446 108.46ZM169.856 84.54C171.696 84.54 173.26 84.816 174.548 85.368C175.866 85.8893 176.97 86.6407 177.86 87.622C178.749 88.6033 179.424 89.7227 179.884 90.98L175.238 92.82C174.839 91.4093 174.195 90.336 173.306 89.6C172.447 88.8333 171.312 88.45 169.902 88.45C168.522 88.45 167.341 88.772 166.36 89.416C165.378 90.0293 164.627 90.934 164.106 92.13C163.615 93.326 163.37 94.798 163.37 96.546C163.37 98.2633 163.63 99.72 164.152 100.916C164.673 102.112 165.424 103.017 166.406 103.63C167.387 104.243 168.552 104.55 169.902 104.55C170.944 104.55 171.849 104.381 172.616 104.044C173.382 103.676 174.011 103.17 174.502 102.526C175.023 101.851 175.376 101.039 175.56 100.088L180.022 101.606C179.592 102.986 178.918 104.197 177.998 105.24C177.108 106.252 175.989 107.049 174.64 107.632C173.29 108.184 171.742 108.46 169.994 108.46C167.724 108.46 165.716 107.985 163.968 107.034C162.22 106.083 160.855 104.719 159.874 102.94C158.923 101.131 158.448 98.984 158.448 96.5C158.448 94.016 158.923 91.8847 159.874 90.106C160.855 88.2967 162.204 86.9167 163.922 85.966C165.67 85.0153 167.648 84.54 169.856 84.54ZM192.466 78.238V101.1C192.466 102.235 192.757 103.063 193.34 103.584C193.953 104.105 194.766 104.366 195.778 104.366C196.606 104.366 197.326 104.243 197.94 103.998C198.553 103.722 199.12 103.354 199.642 102.894L200.746 106.482C200.04 107.095 199.166 107.586 198.124 107.954C197.112 108.291 195.977 108.46 194.72 108.46C193.401 108.46 192.19 108.245 191.086 107.816C189.982 107.387 189.123 106.697 188.51 105.746C187.896 104.765 187.574 103.492 187.544 101.928V79.618L192.466 78.238ZM200.378 85V88.864H183.128V85H200.378ZM213.986 108.46C211.686 108.46 209.585 108.015 207.684 107.126C205.782 106.237 204.28 104.979 203.176 103.354L206.58 100.41C207.254 101.667 208.22 102.679 209.478 103.446C210.766 104.182 212.299 104.55 214.078 104.55C215.488 104.55 216.608 104.305 217.436 103.814C218.264 103.323 218.678 102.633 218.678 101.744C218.678 101.161 218.478 100.655 218.08 100.226C217.712 99.766 216.991 99.4133 215.918 99.168L211.088 98.156C208.634 97.6653 206.886 96.8833 205.844 95.81C204.801 94.706 204.28 93.3107 204.28 91.624C204.28 90.3667 204.648 89.2013 205.384 88.128C206.12 87.0547 207.193 86.196 208.604 85.552C210.045 84.8773 211.762 84.54 213.756 84.54C216.056 84.54 218.018 84.954 219.644 85.782C221.269 86.5793 222.511 87.7293 223.37 89.232L219.966 92.084C219.383 90.8573 218.524 89.9527 217.39 89.37C216.255 88.7567 215.074 88.45 213.848 88.45C212.866 88.45 212.023 88.5727 211.318 88.818C210.612 89.0633 210.076 89.4007 209.708 89.83C209.34 90.2593 209.156 90.7653 209.156 91.348C209.156 91.9613 209.386 92.498 209.846 92.958C210.306 93.418 211.134 93.7707 212.33 94.016L217.574 95.12C219.782 95.5493 221.33 96.2853 222.22 97.328C223.14 98.34 223.6 99.582 223.6 101.054C223.6 102.526 223.216 103.829 222.45 104.964C221.683 106.068 220.579 106.927 219.138 107.54C217.696 108.153 215.979 108.46 213.986 108.46Z" fill="white"/>
<defs>
<linearGradient id="paint0_linear_636_993" x1="134.5" y1="0" x2="134.5" y2="137" gradientUnits="userSpaceOnUse">
<stop stop-color="#D2FF3A"/>
<stop offset="1" stop-color="white" stop-opacity="0"/>
</linearGradient>
</defs>
</svg>
