<svg width="301" height="201" viewBox="0 0 301 201" fill="none" xmlns="http://www.w3.org/2000/svg">
<g clip-path="url(#clip0_636_1273)">
<path d="M0.261719 8.21875C0.261719 3.80048 3.84344 0.21875 8.26172 0.21875H292.262C296.68 0.21875 300.262 3.80047 300.262 8.21875V192.219C300.262 196.637 296.68 200.219 292.262 200.219H8.26171C3.84343 200.219 0.261719 196.637 0.261719 192.219V8.21875Z" fill="#19161C"/>
<path d="M82.6251 118.299V126.219H81.6651V118.299H82.6251ZM92.8719 118.299V126.219H91.9599V121.239L92.0679 119.151H92.0559L89.4519 126.219H88.6359L86.0319 119.151H86.0199L86.1279 121.239V126.219H85.2159V118.299H86.6919L88.4319 123.111L89.0319 125.091H89.0559L89.6679 123.123L91.3959 118.299H92.8719ZM101.77 126.219H100.75L99.9101 124.023H96.3221L95.4821 126.219H94.4741L97.5581 118.299H98.6981L101.77 126.219ZM96.6701 123.123H99.5621L98.1101 119.223L96.6701 123.123ZM106.302 126.339C105.55 126.339 104.898 126.175 104.346 125.847C103.802 125.511 103.378 125.039 103.074 124.431C102.778 123.823 102.63 123.099 102.63 122.259C102.63 121.419 102.786 120.695 103.098 120.087C103.418 119.479 103.862 119.011 104.43 118.683C104.998 118.347 105.65 118.179 106.386 118.179C107.17 118.179 107.806 118.327 108.294 118.623C108.79 118.919 109.19 119.375 109.494 119.991L108.618 120.471C108.442 120.015 108.162 119.671 107.778 119.439C107.402 119.199 106.938 119.079 106.386 119.079C105.85 119.079 105.374 119.207 104.958 119.463C104.55 119.711 104.226 120.075 103.986 120.555C103.754 121.027 103.638 121.595 103.638 122.259C103.638 122.923 103.738 123.495 103.938 123.975C104.146 124.447 104.45 124.811 104.85 125.067C105.258 125.315 105.754 125.439 106.338 125.439C106.666 125.439 106.97 125.399 107.25 125.319C107.538 125.231 107.786 125.103 107.994 124.935C108.21 124.767 108.378 124.555 108.498 124.299C108.618 124.043 108.678 123.743 108.678 123.399V123.123H106.158V122.223H109.554V126.219H108.798L108.75 124.743L108.954 124.779C108.746 125.275 108.418 125.659 107.97 125.931C107.522 126.203 106.966 126.339 106.302 126.339ZM111.794 126.219V118.299H117.35V119.199H112.754V121.755H116.33V122.655H112.754V125.319H117.53V126.219H111.794ZM121.99 118.179C122.686 118.179 123.286 118.323 123.79 118.611C124.294 118.891 124.714 119.307 125.05 119.859L124.246 120.483C123.95 119.971 123.614 119.611 123.238 119.403C122.87 119.187 122.422 119.079 121.894 119.079C121.47 119.079 121.118 119.139 120.838 119.259C120.566 119.379 120.366 119.539 120.238 119.739C120.11 119.931 120.046 120.151 120.046 120.399C120.046 120.679 120.134 120.927 120.31 121.143C120.486 121.351 120.838 121.515 121.366 121.635L123.082 122.019C123.842 122.187 124.37 122.443 124.666 122.787C124.97 123.123 125.122 123.543 125.122 124.047C125.122 124.495 124.994 124.895 124.738 125.247C124.49 125.591 124.138 125.859 123.682 126.051C123.226 126.243 122.69 126.339 122.074 126.339C121.498 126.339 120.99 126.263 120.55 126.111C120.118 125.951 119.746 125.739 119.434 125.475C119.122 125.211 118.866 124.915 118.666 124.587L119.506 123.903C119.658 124.207 119.854 124.475 120.094 124.707C120.334 124.939 120.622 125.119 120.958 125.247C121.302 125.375 121.694 125.439 122.134 125.439C122.542 125.439 122.894 125.391 123.19 125.295C123.494 125.191 123.726 125.043 123.886 124.851C124.046 124.651 124.126 124.411 124.126 124.131C124.126 123.875 124.042 123.647 123.874 123.447C123.706 123.239 123.39 123.083 122.926 122.979L121.066 122.559C120.578 122.447 120.182 122.295 119.878 122.103C119.582 121.903 119.366 121.671 119.23 121.407C119.102 121.135 119.038 120.843 119.038 120.531C119.038 120.107 119.154 119.719 119.386 119.367C119.626 119.007 119.966 118.719 120.406 118.503C120.854 118.287 121.382 118.179 121.99 118.179ZM134.416 126.339C133.664 126.339 133.012 126.175 132.46 125.847C131.916 125.511 131.492 125.039 131.188 124.431C130.892 123.823 130.744 123.099 130.744 122.259C130.744 121.419 130.9 120.695 131.212 120.087C131.532 119.479 131.976 119.011 132.544 118.683C133.112 118.347 133.764 118.179 134.5 118.179C135.284 118.179 135.92 118.327 136.408 118.623C136.904 118.919 137.304 119.375 137.608 119.991L136.732 120.471C136.556 120.015 136.276 119.671 135.892 119.439C135.516 119.199 135.052 119.079 134.5 119.079C133.964 119.079 133.488 119.207 133.072 119.463C132.664 119.711 132.34 120.075 132.1 120.555C131.868 121.027 131.752 121.595 131.752 122.259C131.752 122.923 131.852 123.495 132.052 123.975C132.26 124.447 132.564 124.811 132.964 125.067C133.372 125.315 133.868 125.439 134.452 125.439C134.78 125.439 135.084 125.399 135.364 125.319C135.652 125.231 135.9 125.103 136.108 124.935C136.324 124.767 136.492 124.555 136.612 124.299C136.732 124.043 136.792 123.743 136.792 123.399V123.123H134.272V122.223H137.668V126.219H136.912L136.864 124.743L137.068 124.779C136.86 125.275 136.532 125.659 136.084 125.931C135.636 126.203 135.08 126.339 134.416 126.339ZM139.907 126.219V118.299H145.463V119.199H140.867V121.755H144.443V122.655H140.867V125.319H145.643V126.219H139.907ZM153.776 118.299V126.219H152.588L149.276 120.915L148.436 119.427H148.424L148.472 120.627V126.219H147.56V118.299H148.748L152.048 123.579L152.9 125.103H152.912L152.864 123.891V118.299H153.776ZM156.372 126.219V118.299H161.928V119.199H157.332V121.755H160.908V122.655H157.332V125.319H162.108V126.219H156.372ZM167.025 118.299C167.833 118.299 168.481 118.507 168.969 118.923C169.457 119.339 169.701 119.903 169.701 120.615C169.701 121.327 169.453 121.883 168.957 122.283C168.469 122.675 167.821 122.871 167.013 122.871L166.929 122.931H164.985V126.219H164.025V118.299H167.025ZM167.013 122.031C167.581 122.031 168.001 121.915 168.273 121.683C168.553 121.443 168.693 121.087 168.693 120.615C168.693 120.143 168.553 119.791 168.273 119.559C168.001 119.319 167.581 119.199 167.013 119.199H164.985V122.031H167.013ZM167.565 122.223L170.181 126.219H169.041L166.761 122.751L167.565 122.223ZM178.317 126.219H177.297L176.457 124.023H172.869L172.029 126.219H171.021L174.105 118.299H175.245L178.317 126.219ZM173.217 123.123H176.109L174.657 119.223L173.217 123.123ZM184.417 118.299V119.199H181.657V126.219H180.697V119.199H177.937V118.299H184.417ZM186.091 126.219V118.299H191.647V119.199H187.051V121.755H190.627V122.655H187.051V125.319H191.827V126.219H186.091ZM196.299 118.299C197.539 118.299 198.511 118.643 199.215 119.331C199.927 120.011 200.283 120.987 200.283 122.259C200.283 123.531 199.927 124.511 199.215 125.199C198.511 125.879 197.539 126.219 196.299 126.219H193.743V118.299H196.299ZM196.395 125.319C197.299 125.319 198.003 125.051 198.507 124.515C199.019 123.971 199.275 123.219 199.275 122.259C199.275 121.299 199.019 120.551 198.507 120.015C198.003 119.471 197.299 119.199 196.395 119.199H194.703V125.319H196.395ZM206.482 126.219V118.299H209.302C210.238 118.299 210.922 118.495 211.354 118.887C211.786 119.279 212.002 119.811 212.002 120.483C212.002 120.883 211.886 121.247 211.654 121.575C211.422 121.895 211.094 122.099 210.67 122.187V122.199C211.142 122.287 211.514 122.503 211.786 122.847C212.066 123.183 212.206 123.567 212.206 123.999C212.206 124.671 211.954 125.211 211.45 125.619C210.946 126.019 210.226 126.219 209.29 126.219H206.482ZM207.442 125.319H209.518C210.086 125.319 210.506 125.203 210.778 124.971C211.058 124.739 211.198 124.415 211.198 123.999C211.198 123.575 211.058 123.251 210.778 123.027C210.506 122.795 210.086 122.679 209.518 122.679H207.442V125.319ZM207.442 121.779H209.314C210.434 121.779 210.994 121.347 210.994 120.483C210.994 119.627 210.434 119.199 209.314 119.199H207.442V121.779ZM219.535 118.299L216.703 123.123V126.219H215.743V123.123L212.911 118.299H214.051L215.587 121.011L216.223 122.139L216.859 121.011L218.395 118.299H219.535ZM80.2955 147.219H79.2755L78.4355 145.023H74.8475L74.0075 147.219H72.9995L76.0835 139.299H77.2235L80.2955 147.219ZM75.1955 144.123H78.0875L76.6355 140.223L75.1955 144.123ZM84.9054 139.299C85.7134 139.299 86.3614 139.507 86.8494 139.923C87.3374 140.339 87.5814 140.903 87.5814 141.615C87.5814 142.327 87.3334 142.883 86.8374 143.283C86.3494 143.675 85.7014 143.871 84.8934 143.871L84.8094 143.931H82.8654V147.219H81.9054V139.299H84.9054ZM84.8934 143.031C85.4614 143.031 85.8814 142.915 86.1534 142.683C86.4334 142.443 86.5734 142.087 86.5734 141.615C86.5734 141.143 86.4334 140.791 86.1534 140.559C85.8814 140.319 85.4614 140.199 84.8934 140.199H82.8654V143.031H84.8934ZM85.4454 143.223L88.0614 147.219H86.9214L84.6414 143.751L85.4454 143.223ZM95.2195 139.299V140.199H92.4595V147.219H91.4995V140.199H88.7395V139.299H95.2195ZM97.8537 139.299V147.219H96.8937V139.299H97.8537ZM105.988 140.199H101.404V142.755H104.98V143.655H101.404V147.219H100.444V139.299H105.988V140.199ZM108.729 139.299V147.219H107.769V139.299H108.729ZM117.703 145.191C117.535 145.639 117.295 146.027 116.983 146.355C116.671 146.675 116.303 146.919 115.879 147.087C115.463 147.255 115.007 147.339 114.511 147.339C113.759 147.339 113.107 147.175 112.555 146.847C112.011 146.511 111.587 146.039 111.283 145.431C110.987 144.823 110.839 144.099 110.839 143.259C110.839 142.419 110.987 141.695 111.283 141.087C111.587 140.479 112.011 140.011 112.555 139.683C113.107 139.347 113.751 139.179 114.487 139.179C114.999 139.179 115.455 139.251 115.855 139.395C116.255 139.531 116.595 139.739 116.875 140.019C117.163 140.291 117.391 140.627 117.559 141.027L116.611 141.471C116.435 141.015 116.179 140.671 115.843 140.439C115.515 140.199 115.087 140.079 114.559 140.079C114.023 140.079 113.551 140.207 113.143 140.463C112.735 140.711 112.415 141.071 112.183 141.543C111.959 142.015 111.847 142.587 111.847 143.259C111.847 143.923 111.955 144.495 112.171 144.975C112.387 145.447 112.695 145.811 113.095 146.067C113.495 146.315 113.967 146.439 114.511 146.439C115.039 146.439 115.499 146.307 115.891 146.043C116.283 145.771 116.567 145.367 116.743 144.831L117.703 145.191ZM120.506 139.299V147.219H119.546V139.299H120.506ZM129.409 147.219H128.389L127.549 145.023H123.961L123.121 147.219H122.113L125.197 139.299H126.337L129.409 147.219ZM124.309 144.123H127.201L125.749 140.223L124.309 144.123ZM131.979 146.319H136.515V147.219H131.019V139.299H131.979V146.319ZM142.912 139.299V147.219H141.952V139.299H142.912ZM151.719 139.299V147.219H150.531L147.219 141.915L146.379 140.427H146.367L146.415 141.627V147.219H145.503V139.299H146.691L149.991 144.579L150.843 146.103H150.855L150.807 144.891V139.299H151.719ZM159.884 139.299V140.199H157.124V147.219H156.164V140.199H153.404V139.299H159.884ZM161.558 147.219V139.299H167.114V140.199H162.518V142.755H166.094V143.655H162.518V146.319H167.294V147.219H161.558ZM170.17 146.319H174.706V147.219H169.21V139.299H170.17V146.319ZM177.342 146.319H181.878V147.219H176.382V139.299H177.342V146.319ZM184.514 139.299V147.219H183.554V139.299H184.514ZM190.297 147.339C189.545 147.339 188.893 147.175 188.341 146.847C187.797 146.511 187.373 146.039 187.069 145.431C186.773 144.823 186.625 144.099 186.625 143.259C186.625 142.419 186.781 141.695 187.093 141.087C187.413 140.479 187.857 140.011 188.425 139.683C188.993 139.347 189.645 139.179 190.381 139.179C191.165 139.179 191.801 139.327 192.289 139.623C192.785 139.919 193.185 140.375 193.489 140.991L192.613 141.471C192.437 141.015 192.157 140.671 191.773 140.439C191.397 140.199 190.933 140.079 190.381 140.079C189.845 140.079 189.369 140.207 188.953 140.463C188.545 140.711 188.221 141.075 187.981 141.555C187.749 142.027 187.633 142.595 187.633 143.259C187.633 143.923 187.733 144.495 187.933 144.975C188.141 145.447 188.445 145.811 188.845 146.067C189.253 146.315 189.749 146.439 190.333 146.439C190.661 146.439 190.965 146.399 191.245 146.319C191.533 146.231 191.781 146.103 191.989 145.935C192.205 145.767 192.373 145.555 192.493 145.299C192.613 145.043 192.673 144.743 192.673 144.399V144.123H190.153V143.223H193.549V147.219H192.793L192.745 145.743L192.949 145.779C192.741 146.275 192.413 146.659 191.965 146.931C191.517 147.203 190.961 147.339 190.297 147.339ZM195.788 147.219V139.299H201.344V140.199H196.748V142.755H200.324V143.655H196.748V146.319H201.524V147.219H195.788ZM209.657 139.299V147.219H208.469L205.157 141.915L204.317 140.427H204.305L204.353 141.627V147.219H203.441V139.299H204.629L207.929 144.579L208.781 146.103H208.793L208.745 144.891V139.299H209.657ZM218.637 145.191C218.469 145.639 218.229 146.027 217.917 146.355C217.605 146.675 217.237 146.919 216.813 147.087C216.397 147.255 215.941 147.339 215.445 147.339C214.693 147.339 214.041 147.175 213.489 146.847C212.945 146.511 212.521 146.039 212.217 145.431C211.921 144.823 211.773 144.099 211.773 143.259C211.773 142.419 211.921 141.695 212.217 141.087C212.521 140.479 212.945 140.011 213.489 139.683C214.041 139.347 214.685 139.179 215.421 139.179C215.933 139.179 216.389 139.251 216.789 139.395C217.189 139.531 217.529 139.739 217.809 140.019C218.097 140.291 218.325 140.627 218.493 141.027L217.545 141.471C217.369 141.015 217.113 140.671 216.777 140.439C216.449 140.199 216.021 140.079 215.493 140.079C214.957 140.079 214.485 140.207 214.077 140.463C213.669 140.711 213.349 141.071 213.117 141.543C212.893 142.015 212.781 142.587 212.781 143.259C212.781 143.923 212.889 144.495 213.105 144.975C213.321 145.447 213.629 145.811 214.029 146.067C214.429 146.315 214.901 146.439 215.445 146.439C215.973 146.439 216.433 146.307 216.825 146.043C217.217 145.771 217.501 145.367 217.677 144.831L218.637 145.191ZM220.48 147.219V139.299H226.036V140.199H221.44V142.755H225.016V143.655H221.44V146.319H226.216V147.219H220.48Z" fill="white"/>
<path d="M91.6972 94.2188V87.2887H78.1732V84.2227C78.2292 84.0827 78.3132 83.9147 78.4252 83.7188C78.5652 83.5228 78.7192 83.2987 78.8872 83.0467L90.4372 66.4987H95.9392V83.8027H100.643V87.2887H95.9392V94.2188H91.6972ZM82.3732 83.8027H91.6972V74.0167C91.6972 73.3447 91.7112 72.6587 91.7392 71.9587C91.7952 71.2307 91.8372 70.5167 91.8652 69.8167H91.7812C91.4732 70.4887 91.0672 71.2307 90.5632 72.0428C90.0872 72.8268 89.6392 73.5127 89.2192 74.1007L82.6672 83.4248C82.6112 83.4807 82.5552 83.5367 82.4992 83.5927C82.4712 83.6487 82.4292 83.7187 82.3732 83.8027ZM116.472 66.1207C118.348 66.1207 119.972 66.4287 121.344 67.0447C122.744 67.6327 123.822 68.4727 124.578 69.5647C125.334 70.6567 125.712 71.9727 125.712 73.5127C125.712 74.9407 125.362 76.2007 124.662 77.2927C123.99 78.3567 122.996 79.1687 121.68 79.7287V79.7707C123.276 80.3587 124.536 81.2407 125.46 82.4167C126.412 83.5647 126.888 84.9927 126.888 86.7007C126.888 88.3527 126.454 89.7667 125.586 90.9427C124.746 92.1187 123.542 93.0287 121.974 93.6727C120.434 94.3168 118.6 94.6388 116.472 94.6388C114.344 94.6388 112.496 94.3168 110.928 93.6727C109.388 93.0287 108.184 92.1187 107.316 90.9427C106.448 89.7667 106.014 88.3527 106.014 86.7007C106.014 85.0207 106.476 83.5927 107.4 82.4167C108.324 81.2407 109.612 80.3587 111.264 79.7707V79.7287C110.004 79.1967 109.01 78.3987 108.282 77.3347C107.554 76.2427 107.19 74.9687 107.19 73.5127C107.19 71.9727 107.568 70.6567 108.324 69.5647C109.08 68.4727 110.158 67.6327 111.558 67.0447C112.958 66.4287 114.596 66.1207 116.472 66.1207ZM116.472 69.9007C114.988 69.9007 113.798 70.2647 112.902 70.9927C112.034 71.7207 111.6 72.7147 111.6 73.9747C111.6 75.2347 112.048 76.2287 112.944 76.9567C113.84 77.6567 115.016 78.0067 116.472 78.0067C117.928 78.0067 119.09 77.6567 119.958 76.9567C120.854 76.2287 121.302 75.2347 121.302 73.9747C121.302 72.7147 120.868 71.7207 120 70.9927C119.132 70.2647 117.956 69.9007 116.472 69.9007ZM116.472 90.8587C117.704 90.8587 118.754 90.6767 119.622 90.3127C120.49 89.9487 121.162 89.4167 121.638 88.7167C122.114 88.0167 122.352 87.2047 122.352 86.2807C122.352 85.3007 122.1 84.4747 121.596 83.8027C121.12 83.1027 120.448 82.5707 119.58 82.2067C118.712 81.8427 117.676 81.6607 116.472 81.6607C115.296 81.6607 114.26 81.8427 113.364 82.2067C112.468 82.5707 111.768 83.1027 111.264 83.8027C110.788 84.4747 110.55 85.3007 110.55 86.2807C110.55 87.2047 110.788 88.0167 111.264 88.7167C111.74 89.4167 112.426 89.9487 113.322 90.3127C114.218 90.6767 115.268 90.8587 116.472 90.8587ZM136.168 88.5487C136.952 88.5487 137.596 88.7447 138.1 89.1367C138.632 89.5007 139.038 90.0187 139.318 90.6907C139.598 91.3347 139.738 92.0767 139.738 92.9167C139.738 93.9527 139.542 94.9468 139.15 95.8988C138.758 96.8788 138.184 97.7608 137.428 98.5448C136.7 99.3568 135.818 100.015 134.782 100.519L132.682 98.7128C133.438 98.4328 134.11 98.0688 134.698 97.6208C135.286 97.1728 135.776 96.6688 136.168 96.1088C136.588 95.5488 136.882 94.9748 137.05 94.3868L136.882 94.3028C136.742 94.3868 136.574 94.4568 136.378 94.5128C136.21 94.5688 135.958 94.5968 135.622 94.5968C135.23 94.5968 134.824 94.4848 134.404 94.2608C134.012 94.0647 133.676 93.7567 133.396 93.3367C133.116 92.9167 132.976 92.3707 132.976 91.6987C132.976 91.0827 133.116 90.5367 133.396 90.0607C133.704 89.5847 134.096 89.2207 134.572 88.9688C135.048 88.6887 135.58 88.5487 136.168 88.5487ZM155.267 94.6388C151.935 94.6388 149.317 93.4347 147.413 91.0267C145.537 88.5907 144.599 85.0347 144.599 80.3587C144.599 75.6827 145.537 72.1407 147.413 69.7327C149.317 67.2967 151.935 66.0787 155.267 66.0787C158.627 66.0787 161.245 67.2967 163.121 69.7327C165.025 72.1407 165.977 75.6827 165.977 80.3587C165.977 85.0347 165.025 88.5907 163.121 91.0267C161.245 93.4347 158.627 94.6388 155.267 94.6388ZM155.267 90.8167C156.611 90.8167 157.731 90.4387 158.627 89.6827C159.551 88.8987 160.237 87.7367 160.685 86.1967C161.161 84.6287 161.399 82.6827 161.399 80.3587C161.399 78.0347 161.161 76.1027 160.685 74.5627C160.237 72.9947 159.551 71.8327 158.627 71.0768C157.731 70.2927 156.611 69.9007 155.267 69.9007C153.923 69.9007 152.789 70.2927 151.865 71.0768C150.969 71.8327 150.297 72.9947 149.849 74.5627C149.401 76.1027 149.177 78.0347 149.177 80.3587C149.177 82.6827 149.401 84.6287 149.849 86.1967C150.297 87.7367 150.969 88.8987 151.865 89.6827C152.789 90.4387 153.923 90.8167 155.267 90.8167ZM182.64 94.6388C179.308 94.6388 176.69 93.4347 174.786 91.0267C172.91 88.5907 171.972 85.0347 171.972 80.3587C171.972 75.6827 172.91 72.1407 174.786 69.7327C176.69 67.2967 179.308 66.0787 182.64 66.0787C186 66.0787 188.618 67.2967 190.494 69.7327C192.398 72.1407 193.35 75.6827 193.35 80.3587C193.35 85.0347 192.398 88.5907 190.494 91.0267C188.618 93.4347 186 94.6388 182.64 94.6388ZM182.64 90.8167C183.984 90.8167 185.104 90.4387 186 89.6827C186.924 88.8987 187.61 87.7367 188.058 86.1967C188.534 84.6287 188.772 82.6827 188.772 80.3587C188.772 78.0347 188.534 76.1027 188.058 74.5627C187.61 72.9947 186.924 71.8327 186 71.0768C185.104 70.2927 183.984 69.9007 182.64 69.9007C181.296 69.9007 180.162 70.2927 179.238 71.0768C178.342 71.8327 177.67 72.9947 177.222 74.5627C176.774 76.1027 176.55 78.0347 176.55 80.3587C176.55 82.6827 176.774 84.6287 177.222 86.1967C177.67 87.7367 178.342 88.8987 179.238 89.6827C180.162 90.4387 181.296 90.8167 182.64 90.8167ZM210.013 94.6388C206.681 94.6388 204.063 93.4347 202.159 91.0267C200.283 88.5907 199.345 85.0347 199.345 80.3587C199.345 75.6827 200.283 72.1407 202.159 69.7327C204.063 67.2967 206.681 66.0787 210.013 66.0787C213.373 66.0787 215.991 67.2967 217.867 69.7327C219.771 72.1407 220.723 75.6827 220.723 80.3587C220.723 85.0347 219.771 88.5907 217.867 91.0267C215.991 93.4347 213.373 94.6388 210.013 94.6388ZM210.013 90.8167C211.357 90.8167 212.477 90.4387 213.373 89.6827C214.297 88.8987 214.983 87.7367 215.431 86.1967C215.907 84.6287 216.145 82.6827 216.145 80.3587C216.145 78.0347 215.907 76.1027 215.431 74.5627C214.983 72.9947 214.297 71.8327 213.373 71.0768C212.477 70.2927 211.357 69.9007 210.013 69.9007C208.669 69.9007 207.535 70.2927 206.611 71.0768C205.715 71.8327 205.043 72.9947 204.595 74.5627C204.147 76.1027 203.923 78.0347 203.923 80.3587C203.923 82.6827 204.147 84.6287 204.595 86.1967C205.043 87.7367 205.715 88.8987 206.611 89.6827C207.535 90.4387 208.669 90.8167 210.013 90.8167Z" fill="#D2FF3A"/>
</g>
<defs>
<clipPath id="clip0_636_1273">
<rect width="300" height="200" fill="white" transform="translate(0.261719 0.21875)"/>
</clipPath>
</defs>
</svg>
