<svg width="87" height="26" viewBox="0 0 87 26" fill="none" xmlns="http://www.w3.org/2000/svg">
<path d="M4.4 26L0.8 21.176V5.624L4.4 0.799998H16.568V4.184H6.056L4.148 6.776V11.78H14.12V15.164H4.148V20.024L6.056 22.616H16.568V26H4.4ZM26.5875 12.14V26H23.3475V12.14H19.4595V8.792H23.3475V0.835998H26.5875V8.792H30.6195V12.14H26.5875ZM46.6269 26V13.472L44.8989 12.14H39.0669L37.1229 14.264V25.964H33.8469V0.799998H37.1229V9.872L38.2029 8.792H45.9789L49.9389 11.78V26H46.6269ZM56.1348 18.548V21.392L57.8988 22.688H65.1348L67.6188 20.6L69.7788 23.192L66.3228 26H56.7828L52.8228 23.048V11.744L56.7828 8.828H66.3228L69.9588 11.816V18.548H56.1348ZM66.6468 13.364L65.1348 12.104H57.8988L56.1348 13.436V15.38H66.6468V13.364ZM84.3107 13.544L82.3307 12.104H78.1547L76.4627 13.4V26H73.1867V8.792H76.4627V10.268L78.1547 8.792H83.4467L86.2187 10.916L84.3107 13.544Z" fill="white"/>
</svg>
