<svg width="87" height="26" viewBox="0 0 87 26" fill="none" xmlns="http://www.w3.org/2000/svg">
<path d="M4.4 25.2188L0.8 20.3947V4.84275L4.4 0.0187483H16.568V3.40275H6.056L4.148 5.99475V10.9987H14.12V14.3827H4.148V19.2427L6.056 21.8347H16.568V25.2188H4.4ZM26.5875 11.3587V25.2188H23.3475V11.3587H19.4595V8.01075H23.3475V0.0547478H26.5875V8.01075H30.6195V11.3587H26.5875ZM46.6269 25.2188V12.6907L44.8989 11.3587H39.0669L37.1229 13.4827V25.1827H33.8469V0.0187483H37.1229V9.09075L38.2029 8.01075H45.9789L49.9389 10.9987V25.2188H46.6269ZM56.1348 17.7667V20.6107L57.8988 21.9067H65.1348L67.6188 19.8187L69.7788 22.4107L66.3228 25.2188H56.7828L52.8228 22.2667V10.9627L56.7828 8.04675H66.3228L69.9588 11.0347V17.7667H56.1348ZM66.6468 12.5827L65.1348 11.3227H57.8988L56.1348 12.6547V14.5987H66.6468V12.5827ZM84.3107 12.7627L82.3307 11.3227H78.1547L76.4627 12.6187V25.2188H73.1867V8.01075H76.4627V9.48675L78.1547 8.01075H83.4467L86.2187 10.1347L84.3107 12.7627Z" fill="white"/>
</svg>
