<svg width="26" height="17" viewBox="0 0 26 17" fill="none" xmlns="http://www.w3.org/2000/svg">
<rect width="26" height="16" transform="translate(0 0.796875)" fill="#0F0F0F"/>
<rect y="0.796875" width="26" height="16" fill="#848895"/>
<path d="M10.3588 3.24268C9.85049 3.24268 8.31791 3.8644 8.04295 3.98865C7.76799 4.1129 7.4628 4.50077 7.1165 5.14092C6.76974 5.78108 6.49147 6.52942 6.03935 7.63019C5.5877 8.73097 5.48235 10.8532 5.49747 11.5009C5.51258 12.1486 5.58676 12.6546 6.25053 13.0377C6.91383 13.4204 7.5006 13.821 8.11807 14.0619C8.73602 14.3029 9.15743 14.4763 9.44373 14.2353C9.73002 13.9944 9.91852 13.5725 9.91852 13.5725C9.91852 13.5725 10.1897 13.196 9.67758 12.9701C9.16546 12.7438 8.9094 12.5856 8.9316 12.3522C8.95428 12.1188 8.9916 11.9908 9.11963 12.021C9.24766 12.0513 9.54955 12.5931 10.7094 12.8416C11.8692 13.0901 12.9998 13.0528 12.9998 13.0528C12.9998 13.0528 14.1308 13.0906 15.2906 12.8416C16.4504 12.5931 16.7518 12.0513 16.8799 12.021C17.0079 11.9908 17.0452 12.1188 17.0679 12.3517C17.0906 12.5856 16.8345 12.7438 16.3224 12.9701C15.8103 13.196 16.0815 13.5725 16.0815 13.5725C16.0815 13.5725 16.27 13.9939 16.5563 14.2353C16.8421 14.4763 17.264 14.3029 17.8814 14.0619C18.4989 13.821 19.0862 13.4208 19.7495 13.0377C20.4132 12.6546 20.4874 12.1486 20.5025 11.5009C20.5176 10.8536 20.4123 8.73097 19.9602 7.63019C19.5085 6.52942 19.2298 5.78108 18.883 5.14092C18.5372 4.50077 18.2315 4.1129 17.957 3.98818C17.6821 3.8644 16.149 3.24268 15.6407 3.24268C15.1323 3.24268 14.9821 3.597 14.9821 3.597L14.8049 3.98865C14.8049 3.98865 13.6144 3.76236 13.0078 3.76188C12.4012 3.76188 11.195 3.98865 11.195 3.98865L11.0179 3.59653C11.0179 3.59653 10.8676 3.24268 10.3588 3.24268ZM10.4141 7.94247H10.433C11.1743 7.94247 11.7747 8.59113 11.7747 9.39096C11.7747 10.1913 11.1743 10.8395 10.433 10.8395C9.69175 10.8395 9.09129 10.1913 9.09129 9.39096C9.09082 8.59869 9.68042 7.95334 10.4141 7.94247ZM15.567 7.94247H15.5859C16.3196 7.95334 16.9087 8.59916 16.9087 9.39096C16.9087 10.1913 16.3082 10.8395 15.567 10.8395C14.8252 10.8395 14.2253 10.1913 14.2253 9.39096C14.2253 8.59113 14.8252 7.94247 15.567 7.94247Z" fill="black"/>
</svg>
