<svg width="26" height="17" viewBox="0 0 26 17" fill="none" xmlns="http://www.w3.org/2000/svg">
<rect y="0.796875" width="26" height="16" fill="#848895"/>
<g clip-path="url(#clip0_636_1345)">
<path fill-rule="evenodd" clip-rule="evenodd" d="M13 0.796875C8.58233 0.796875 5 4.46921 5 8.99921C5 12.6235 7.29233 15.6982 10.471 16.7825C10.871 16.8585 11.0177 16.6049 11.0177 16.3882C11.0177 16.1925 11.01 15.5465 11.0067 14.8612C8.781 15.3572 8.31133 13.8932 8.31133 13.8932C7.94733 12.9452 7.423 12.6932 7.423 12.6932C6.69733 12.1839 7.478 12.1945 7.478 12.1945C8.28133 12.2522 8.70433 13.0395 8.70433 13.0395C9.41767 14.2935 10.5757 13.9312 11.0323 13.7215C11.104 13.1915 11.3113 12.8295 11.54 12.6249C9.76333 12.4172 7.89533 11.7139 7.89533 8.57088C7.89533 7.67554 8.20767 6.94354 8.71967 6.36921C8.63633 6.16254 8.36267 5.32821 8.797 4.19854C8.797 4.19854 9.469 3.97821 10.9977 5.03921C11.6357 4.85754 12.3203 4.76654 13 4.76321C13.68 4.76654 14.365 4.85754 15.0043 5.03921C16.531 3.97821 17.202 4.19854 17.202 4.19854C17.6373 5.32854 17.3633 6.16254 17.2803 6.36921C17.7937 6.94354 18.1037 7.67554 18.1037 8.57088C18.1037 11.7215 16.2323 12.4152 14.4507 12.6182C14.7377 12.8729 14.9933 13.3719 14.9933 14.1372C14.9933 15.2345 14.9843 16.1179 14.9843 16.3882C14.9843 16.6065 15.1283 16.8622 15.5337 16.7815C18.7107 15.6959 21 12.6222 21 8.99921C21 4.46921 17.4183 0.796875 13 0.796875Z" fill="black"/>
<path fill-rule="evenodd" clip-rule="evenodd" d="M8.03067 12.5739C8.013 12.6149 7.95067 12.6269 7.89367 12.5989C7.83567 12.5723 7.803 12.5166 7.82167 12.4756C7.839 12.4336 7.90167 12.4223 7.95967 12.4499C8.01767 12.4769 8.05067 12.5333 8.03067 12.5739ZM8.35467 12.9446C8.31667 12.9806 8.242 12.9639 8.19133 12.9066C8.139 12.8493 8.12933 12.7729 8.168 12.7363C8.20733 12.6996 8.27967 12.7169 8.332 12.7739C8.38433 12.8319 8.39467 12.9079 8.35467 12.9446ZM8.67 13.4169C8.62133 13.4519 8.541 13.4193 8.49133 13.3463C8.44233 13.2729 8.44233 13.1856 8.49267 13.1506C8.54233 13.1156 8.621 13.1473 8.67133 13.2196C8.72033 13.2936 8.72033 13.3813 8.67 13.4169ZM9.10233 13.8736C9.05833 13.9229 8.965 13.9096 8.89667 13.8419C8.82667 13.7759 8.80733 13.6819 8.85133 13.6323C8.89567 13.5826 8.98967 13.5966 9.05833 13.6636C9.128 13.7296 9.149 13.8243 9.10233 13.8736ZM9.69833 14.1383C9.679 14.2026 9.589 14.2316 9.49833 14.2046C9.40833 14.1763 9.349 14.1013 9.367 14.0363C9.386 13.9716 9.47633 13.9409 9.56767 13.9703C9.65767 13.9983 9.71733 14.0729 9.69833 14.1383ZM10.3533 14.1876C10.3553 14.2553 10.2787 14.3109 10.1833 14.3123C10.0877 14.3146 10.0103 14.2599 10.0093 14.1933C10.0093 14.1249 10.0847 14.0696 10.18 14.0679C10.2753 14.0659 10.3533 14.1203 10.3533 14.1876ZM10.9623 14.0813C10.9737 14.1473 10.9077 14.2149 10.8133 14.2329C10.7203 14.2503 10.6343 14.2096 10.6227 14.1443C10.611 14.0766 10.6783 14.0086 10.771 13.9909C10.8657 13.9743 10.9503 14.0146 10.9623 14.0813Z" fill="black"/>
</g>
<defs>
<clipPath id="clip0_636_1345">
<rect width="16" height="16" fill="white" transform="translate(5 0.796875)"/>
</clipPath>
</defs>
</svg>
