<svg width="24" height="24" viewBox="0 0 24 24" fill="none" xmlns="http://www.w3.org/2000/svg">
<g clip-path="url(#clip0_636_1115)">
<path fill-rule="evenodd" clip-rule="evenodd" d="M17.2931 8.29302C17.3853 8.19751 17.4957 8.12133 17.6177 8.06892C17.7397 8.01651 17.8709 7.98892 18.0037 7.98777C18.1365 7.98662 18.2681 8.01192 18.391 8.0622C18.5139 8.11248 18.6256 8.18673 18.7195 8.28063C18.8134 8.37452 18.8876 8.48617 18.9379 8.60907C18.9882 8.73196 19.0135 8.86364 19.0123 8.99642C19.0112 9.1292 18.9836 9.26042 18.9312 9.38242C18.8788 9.50443 18.8026 9.61477 18.7071 9.70702L12.7071 15.707C12.5248 15.8893 12.2793 15.9941 12.0216 15.9997C11.7639 16.0053 11.514 15.9112 11.3241 15.737L5.32407 10.237C5.12861 10.0577 5.01237 9.80814 5.00093 9.54315C4.99527 9.41194 5.0155 9.2809 5.06048 9.15752C5.10546 9.03413 5.1743 8.9208 5.26307 8.82402C5.35185 8.72724 5.45881 8.64888 5.57787 8.59344C5.69692 8.538 5.82573 8.50654 5.95694 8.50088C6.22193 8.48944 6.48061 8.58373 6.67607 8.76302L11.9701 13.616L17.2931 8.29302Z" fill="white"/>
</g>
<defs>
<clipPath id="clip0_636_1115">
<rect width="24" height="24" fill="white"/>
</clipPath>
</defs>
</svg>
