<svg width="26" height="17" viewBox="0 0 26 17" fill="none" xmlns="http://www.w3.org/2000/svg">
<g clip-path="url(#clip0_636_1358)">
<rect y="0.796875" width="26" height="16" rx="8" fill="white"/>
<rect y="0.796875" width="26" height="16" fill="#848895"/>
<path d="M19.9702 8.82391C19.9697 8.39821 19.8004 7.99006 19.4994 7.68904C19.1984 7.38803 18.7902 7.21872 18.3645 7.21827C17.9747 7.21781 17.5982 7.36027 17.3063 7.61869C16.2444 6.93918 14.8276 6.51111 13.2648 6.46483L14.2212 3.19428L16.569 3.63054C16.569 3.64973 16.565 3.66779 16.5661 3.68698C16.5801 3.95562 16.7001 4.20773 16.8998 4.38801C17.0994 4.5683 17.3624 4.66204 17.6311 4.64867C17.8997 4.63459 18.1517 4.51456 18.332 4.31493C18.5122 4.11529 18.6059 3.85232 18.5925 3.5837C18.5785 3.31506 18.4585 3.06295 18.2589 2.88267C18.0592 2.70238 17.7962 2.60864 17.5275 2.62201C17.3564 2.63112 17.1904 2.68354 17.045 2.77435C16.8997 2.86517 16.7797 2.9914 16.6965 3.14123L16.6957 3.14095L13.8665 2.61523L12.7397 6.46426C11.173 6.50575 9.7516 6.93157 8.68522 7.60966C8.39458 7.35676 8.02216 7.21771 7.63689 7.21827C7.21121 7.21879 6.80311 7.38812 6.50211 7.68913C6.20111 7.99013 6.03177 8.39823 6.03125 8.82391C6.03125 9.37135 6.31315 9.87647 6.76973 10.1711C6.7412 10.3322 6.72656 10.4956 6.72599 10.6593C6.72599 12.9766 9.53545 14.8621 12.9889 14.8621C16.4423 14.8621 19.2511 12.9766 19.2511 10.659C19.2511 10.4987 19.2365 10.3407 19.2102 10.1849C19.442 10.0412 19.6334 9.84088 19.7663 9.60276C19.8992 9.36465 19.9695 9.09661 19.9702 8.82391ZM10.0123 9.91654C10.0124 9.78697 10.0379 9.65867 10.0876 9.53898C10.1372 9.41929 10.2099 9.31054 10.3015 9.21894C10.3932 9.12735 10.502 9.0547 10.6217 9.00515C10.7414 8.9556 10.8697 8.93012 10.9993 8.93016C11.1289 8.93019 11.2572 8.95575 11.3769 9.00537C11.4965 9.05499 11.6053 9.1277 11.6969 9.21934C11.7885 9.31099 11.8611 9.41978 11.9107 9.5395C11.9602 9.65922 11.9857 9.78753 11.9857 9.9171C11.9856 10.1788 11.8816 10.4297 11.6965 10.6147C11.5114 10.7997 11.2604 10.9036 10.9987 10.9035C10.737 10.9034 10.4861 10.7994 10.3011 10.6143C10.1161 10.4292 10.0123 10.1782 10.0123 9.91654ZM15.3146 12.5855C15.2853 12.6159 14.5773 13.3364 12.9773 13.3364C11.3688 13.3364 10.7254 12.6061 10.6992 12.575C10.6585 12.5241 10.6391 12.4593 10.6451 12.3944C10.6512 12.3294 10.6821 12.2694 10.7314 12.2267C10.7808 12.1841 10.8447 12.1622 10.9098 12.1657C10.9749 12.1692 11.0362 12.1978 11.0807 12.2454C11.0954 12.2612 11.6321 12.8321 12.977 12.8321C14.3456 12.8321 14.9455 12.2409 14.9517 12.2353C14.9991 12.1919 15.0613 12.1683 15.1255 12.1691C15.1897 12.17 15.2512 12.1953 15.2975 12.2399C15.3437 12.2844 15.3712 12.345 15.3744 12.4091C15.3776 12.4733 15.3562 12.5365 15.3146 12.5855ZM15.1185 10.9033C14.989 10.9034 14.8607 10.8779 14.741 10.8284C14.6212 10.7789 14.5125 10.7063 14.4208 10.6147C14.3292 10.5231 14.2565 10.4144 14.2068 10.2947C14.1572 10.1751 14.1316 10.0468 14.1316 9.91724C14.1315 9.78769 14.157 9.6594 14.2065 9.53969C14.256 9.41997 14.3286 9.31119 14.4202 9.21954C14.5118 9.1279 14.6205 9.05518 14.7402 9.00555C14.8598 8.95592 14.9881 8.93035 15.1177 8.9303C15.3793 8.93018 15.6303 9.03401 15.8154 9.21894C16.0005 9.40387 16.1045 9.65476 16.1046 9.9164C16.1047 10.178 16.0009 10.429 15.816 10.6141C15.631 10.7992 15.3802 10.9032 15.1185 10.9033Z" fill="black"/>
</g>
<defs>
<clipPath id="clip0_636_1358">
<rect y="0.796875" width="26" height="16" rx="8" fill="white"/>
</clipPath>
</defs>
</svg>
