<svg width="450" height="221" viewBox="0 0 450 221" fill="none" xmlns="http://www.w3.org/2000/svg">
<rect x="27" y="12" width="423" height="208" rx="35" fill="url(#paint0_linear_636_1007)"/>
<path d="M188.723 94L261.447 219.96H116L188.723 94Z" fill="white"/>
<path d="M341.403 92.8536C331.696 95.079 325.63 104.753 327.855 114.46C330.081 124.168 339.754 130.234 349.462 128.008C359.17 125.783 365.235 116.109 363.01 106.401C360.785 96.6936 351.111 90.6281 341.403 92.8536ZM381.367 186.476L346.212 194.535L331.885 132.038L269.388 146.365L261.329 111.21L323.826 96.883L309.499 34.3859L344.654 26.327L358.981 88.8241L421.478 74.497L429.537 109.652L367.04 123.979L381.367 186.476Z" fill="#D2FF3A"/>
<path d="M337.067 202.033C337.067 211.993 328.993 220.067 319.033 220.067C309.074 220.067 301 211.993 301 202.033C301 192.074 309.074 184 319.033 184C328.993 184 337.067 192.074 337.067 202.033Z" fill="#6843EC"/>
<path d="M206.747 69.213L173.704 42.9296L152.093 70.098L98.1236 27.1685L71.8402 60.2112L125.81 103.141L53.9687 193.458L87.0114 219.741L206.747 69.213Z" fill="#040C1F"/>
<defs>
<linearGradient id="paint0_linear_636_1007" x1="27" y1="116" x2="450" y2="116" gradientUnits="userSpaceOnUse">
<stop stop-color="#6843EC"/>
<stop offset="1" stop-color="#292929" stop-opacity="0"/>
</linearGradient>
</defs>
</svg>
