<svg width="98" height="24" viewBox="0 0 98 24" fill="none" xmlns="http://www.w3.org/2000/svg">
<path d="M4.23298 7.76C4.85832 7.76 5.39965 7.87667 5.85698 8.11C6.32365 8.334 6.68765 8.656 6.94898 9.076C7.21032 9.496 7.34098 9.99533 7.34098 10.574C7.34098 11.1527 7.21032 11.652 6.94898 12.072C6.68765 12.492 6.32365 12.8187 5.85698 13.052C5.39965 13.276 4.85832 13.388 4.23298 13.388H2.09098V17H0.970984V7.76H4.23298ZM4.06498 12.338C4.79298 12.338 5.32498 12.1887 5.66098 11.89C5.99698 11.582 6.16498 11.1433 6.16498 10.574C6.16498 9.99533 5.99698 9.55667 5.66098 9.258C5.32498 8.95933 4.79298 8.81 4.06498 8.81H2.09098V12.338H4.06498ZM13.2399 7.62C14.1172 7.62 14.8732 7.816 15.5079 8.208C16.1519 8.59067 16.6466 9.13667 16.9919 9.846C17.3466 10.5553 17.5239 11.4 17.5239 12.38C17.5239 13.36 17.3466 14.2047 16.9919 14.914C16.6466 15.6233 16.1519 16.174 15.5079 16.566C14.8732 16.9487 14.1172 17.14 13.2399 17.14C12.3626 17.14 11.6019 16.9487 10.9579 16.566C10.3232 16.174 9.82857 15.6233 9.47391 14.914C9.12857 14.2047 8.95591 13.36 8.95591 12.38C8.95591 11.4 9.12857 10.5553 9.47391 9.846C9.82857 9.13667 10.3232 8.59067 10.9579 8.208C11.6019 7.816 12.3626 7.62 13.2399 7.62ZM13.2399 8.67C12.6052 8.67 12.0546 8.81933 11.5879 9.118C11.1212 9.40733 10.7619 9.832 10.5099 10.392C10.2579 10.9427 10.1319 11.6053 10.1319 12.38C10.1319 13.1547 10.2579 13.822 10.5099 14.382C10.7619 14.9327 11.1212 15.3573 11.5879 15.656C12.0546 15.9453 12.6052 16.09 13.2399 16.09C13.8839 16.09 14.4346 15.9453 14.8919 15.656C15.3586 15.3573 15.7179 14.9327 15.9699 14.382C16.2219 13.822 16.3479 13.1547 16.3479 12.38C16.3479 11.6053 16.2219 10.9427 15.9699 10.392C15.7179 9.832 15.3586 9.40733 14.8919 9.118C14.4346 8.81933 13.8839 8.67 13.2399 8.67ZM22.9706 7.76C24.4172 7.76 25.5512 8.16133 26.3726 8.964C27.2032 9.75733 27.6186 10.896 27.6186 12.38C27.6186 13.864 27.2032 15.0073 26.3726 15.81C25.5512 16.6033 24.4172 17 22.9706 17H19.9886V7.76H22.9706ZM23.0826 15.95C24.1372 15.95 24.9586 15.6373 25.5466 15.012C26.1439 14.3773 26.4426 13.5 26.4426 12.38C26.4426 11.26 26.1439 10.3873 25.5466 9.762C24.9586 9.12733 24.1372 8.81 23.0826 8.81H21.1086V15.95H23.0826ZM37.5264 14.634C37.3304 15.1567 37.0504 15.6093 36.6864 15.992C36.3224 16.3653 35.8931 16.65 35.3984 16.846C34.9131 17.042 34.3811 17.14 33.8024 17.14C32.9251 17.14 32.1644 16.9487 31.5204 16.566C30.8857 16.174 30.3911 15.6233 30.0364 14.914C29.6911 14.2047 29.5184 13.36 29.5184 12.38C29.5184 11.4 29.6911 10.5553 30.0364 9.846C30.3911 9.13667 30.8857 8.59067 31.5204 8.208C32.1644 7.816 32.9157 7.62 33.7744 7.62C34.3717 7.62 34.9037 7.704 35.3704 7.872C35.8371 8.03067 36.2337 8.27333 36.5604 8.6C36.8964 8.91733 37.1624 9.30933 37.3584 9.776L36.2524 10.294C36.0471 9.762 35.7484 9.36067 35.3564 9.09C34.9737 8.81 34.4744 8.67 33.8584 8.67C33.2331 8.67 32.6824 8.81933 32.2064 9.118C31.7304 9.40733 31.3571 9.82733 31.0864 10.378C30.8251 10.9287 30.6944 11.596 30.6944 12.38C30.6944 13.1547 30.8204 13.822 31.0724 14.382C31.3244 14.9327 31.6837 15.3573 32.1504 15.656C32.6171 15.9453 33.1677 16.09 33.8024 16.09C34.4184 16.09 34.9551 15.936 35.4124 15.628C35.8697 15.3107 36.2011 14.8393 36.4064 14.214L37.5264 14.634ZM47.0401 17H45.8501L44.8701 14.438H40.6841L39.7041 17H38.5281L42.1261 7.76H43.4561L47.0401 17ZM41.0901 13.388H44.4641L42.7701 8.838L41.0901 13.388ZM51.7769 7.62C52.5889 7.62 53.2889 7.788 53.8769 8.124C54.4649 8.45067 54.9549 8.936 55.3469 9.58L54.4089 10.308C54.0635 9.71067 53.6715 9.29067 53.2329 9.048C52.8035 8.796 52.2809 8.67 51.6649 8.67C51.1702 8.67 50.7595 8.74 50.4329 8.88C50.1155 9.02 49.8822 9.20667 49.7329 9.44C49.5835 9.664 49.5089 9.92067 49.5089 10.21C49.5089 10.5367 49.6115 10.826 49.8169 11.078C50.0222 11.3207 50.4329 11.512 51.0489 11.652L53.0509 12.1C53.9375 12.296 54.5535 12.5947 54.8989 12.996C55.2535 13.388 55.4309 13.878 55.4309 14.466C55.4309 14.9887 55.2815 15.4553 54.9829 15.866C54.6935 16.2673 54.2829 16.58 53.7509 16.804C53.2189 17.028 52.5935 17.14 51.8749 17.14C51.2029 17.14 50.6102 17.0513 50.0969 16.874C49.5929 16.6873 49.1589 16.44 48.7949 16.132C48.4309 15.824 48.1322 15.4787 47.8989 15.096L48.8789 14.298C49.0562 14.6527 49.2849 14.9653 49.5649 15.236C49.8449 15.5067 50.1809 15.7167 50.5729 15.866C50.9742 16.0153 51.4315 16.09 51.9449 16.09C52.4209 16.09 52.8315 16.034 53.1769 15.922C53.5315 15.8007 53.8022 15.628 53.9889 15.404C54.1755 15.1707 54.2689 14.8907 54.2689 14.564C54.2689 14.2653 54.1709 13.9993 53.9749 13.766C53.7789 13.5233 53.4102 13.3413 52.8689 13.22L50.6989 12.73C50.1295 12.5993 49.6675 12.422 49.3129 12.198C48.9675 11.9647 48.7155 11.694 48.5569 11.386C48.4075 11.0687 48.3329 10.728 48.3329 10.364C48.3329 9.86933 48.4682 9.41667 48.7389 9.006C49.0189 8.586 49.4155 8.25 49.9289 7.998C50.4515 7.746 51.0675 7.62 51.7769 7.62ZM63.8498 7.76V8.81H60.6298V17H59.5098V8.81H56.2898V7.76H63.8498Z" fill="white"/>
<g clip-path="url(#clip0_23_1054)">
<path fill-rule="evenodd" clip-rule="evenodd" d="M96.4398 20.4497C96.2158 21.0186 95.699 21.8195 94.9662 22.3838C94.543 22.7097 94.0378 23.0213 93.344 23.2268C92.6044 23.446 91.6933 23.5201 90.5594 23.5201H80.1914C79.0576 23.5201 78.1466 23.446 77.4068 23.2268C76.713 23.0213 76.2079 22.7097 75.7847 22.3838C75.0519 21.8195 74.5351 21.0187 74.3111 20.4497C73.86 19.3035 73.8555 18.003 73.8555 17.184V6.81596C73.8555 5.99701 73.86 4.69645 74.3112 3.55027C74.5351 2.98139 75.0519 2.1804 75.7848 1.61619C76.2079 1.29031 76.7131 0.978816 77.4068 0.773257C78.1466 0.554055 79.0576 0.47998 80.1914 0.47998H90.5595C91.6933 0.47998 92.6044 0.554055 93.3441 0.773257C94.0379 0.978816 94.543 1.2904 94.9663 1.61619C95.699 2.18049 96.2159 2.98139 96.4399 3.55027C96.8909 4.69645 96.8955 5.99701 96.8955 6.81596V17.1839C96.8955 18.003 96.8909 19.3035 96.4398 20.4497Z" fill="url(#paint0_linear_23_1054)"/>
<path d="M87.0435 13.723C86.6979 13.3583 86.0907 13.1244 85.3737 13.1244C84.6568 13.1244 84.0495 13.3583 83.7039 13.723C83.5234 13.9134 83.428 14.1084 83.3979 14.3865C83.3399 14.9248 83.3725 15.3882 83.4356 16.1293C83.4957 16.8355 83.6097 17.7771 83.7586 18.7361C83.8646 19.4187 83.9506 19.787 84.0291 20.0509C84.1562 20.4784 84.6311 20.8522 85.3737 20.8522C86.1164 20.8522 86.5913 20.4783 86.7184 20.0509C86.7968 19.7871 86.8829 19.4188 86.9888 18.7361C87.1378 17.7771 87.2518 16.8356 87.3119 16.1293C87.3748 15.3882 87.4076 14.9247 87.3494 14.3865C87.3195 14.1084 87.224 13.9135 87.0435 13.723ZM83.49 10.4749C83.49 11.5164 84.3342 12.3606 85.3756 12.3606C86.417 12.3606 87.2612 11.5164 87.2612 10.4749C87.2612 9.43361 86.417 8.58931 85.3756 8.58931C84.3342 8.58931 83.49 9.43361 83.49 10.4749ZM85.3522 3.03354C80.9422 3.04608 77.3287 6.62372 77.2741 11.0334C77.2298 14.6055 79.51 17.6612 82.6941 18.7811C82.7715 18.8084 82.85 18.7443 82.8377 18.6632C82.796 18.3859 82.7567 18.1071 82.7204 17.833C82.7076 17.7362 82.6459 17.6527 82.5563 17.6136C80.0397 16.5141 78.2823 13.99 78.3105 11.0664C78.3475 7.22941 81.4805 4.10144 85.3175 4.0704C89.2398 4.03872 92.441 7.22035 92.441 11.1356C92.441 14.03 90.6913 16.523 88.1941 17.6138C88.1047 17.6529 88.0434 17.7367 88.0306 17.8333C87.9944 18.1073 87.9551 18.3859 87.9134 18.6631C87.9012 18.7441 87.9796 18.8083 88.0569 18.781C91.2106 17.6718 93.4776 14.6637 93.4776 11.1356C93.4778 6.66034 89.8304 3.0209 85.3522 3.03354ZM85.2059 6.75072C87.7058 6.65385 89.7704 8.65953 89.7704 11.1383C89.7704 12.399 89.2363 13.5371 88.3826 14.3386C88.3103 14.4066 88.2713 14.5031 88.277 14.6022C88.2939 14.9038 88.2877 15.1967 88.2676 15.5276C88.2623 15.6157 88.3611 15.6721 88.434 15.6223C89.8657 14.644 90.8071 12.9992 90.8071 11.1382C90.8071 8.07417 88.255 5.59492 85.1648 5.71469C82.293 5.82593 79.9889 8.19375 79.9522 11.0674C79.928 12.9576 80.8753 14.6319 82.3252 15.6226C82.398 15.6723 82.4966 15.6157 82.4913 15.5278C82.4712 15.1967 82.465 14.9037 82.482 14.6022C82.4875 14.5032 82.4487 14.4068 82.3763 14.3388C81.496 13.5124 80.9554 12.3279 80.9899 11.0205C81.0505 8.71942 82.9057 6.83982 85.2059 6.75072Z" fill="white"/>
</g>
<defs>
<linearGradient id="paint0_linear_23_1054" x1="85.3755" y1="0.479981" x2="85.3755" y2="23.52" gradientUnits="userSpaceOnUse">
<stop stop-color="#F452FF"/>
<stop offset="1" stop-color="#832BC1"/>
</linearGradient>
<clipPath id="clip0_23_1054">
<rect width="24" height="24" fill="white" transform="translate(73.375)"/>
</clipPath>
</defs>
</svg>
