<svg width="423" height="99" viewBox="0 0 423 99" fill="none" xmlns="http://www.w3.org/2000/svg">
<rect width="423" height="99" rx="24" fill="#D2FF3A"/>
<path d="M154.848 39.88V42.824H147.616V61H144.192V42.824H136.96V39.88H154.848ZM156.312 61V45H159.224L159.544 47.88C159.971 46.8347 160.6 46.0453 161.432 45.512C162.286 44.9573 163.331 44.68 164.568 44.68C164.888 44.68 165.208 44.712 165.528 44.776C165.848 44.8187 166.115 44.8933 166.328 45L165.848 48.008C165.614 47.9227 165.347 47.8587 165.048 47.816C164.771 47.752 164.387 47.72 163.896 47.72C163.235 47.72 162.584 47.9013 161.944 48.264C161.304 48.6053 160.771 49.128 160.344 49.832C159.939 50.536 159.736 51.432 159.736 52.52V61H156.312ZM183.61 45L176.602 62.888C176.133 64.1253 175.621 65.1067 175.066 65.832C174.533 66.5573 173.914 67.08 173.21 67.4C172.506 67.72 171.685 67.88 170.746 67.88C169.978 67.88 169.264 67.7733 168.602 67.56C167.962 67.368 167.397 67.1013 166.906 66.76L167.738 64.104C168.144 64.4453 168.57 64.7013 169.018 64.872C169.488 65.0427 169.989 65.128 170.522 65.128C171.098 65.128 171.61 64.968 172.058 64.648C172.528 64.3493 172.944 63.7413 173.306 62.824L174.01 61.096L172.314 57.128L167.322 45H171.162L174.714 55.048L175.642 58.056L176.698 54.76L180.058 45H183.61ZM211.9 42.824H200.06V48.968H209.34V51.912H200.06V61H196.636V39.88H211.9V42.824ZM214.656 61V45H217.568L217.888 47.88C218.315 46.8347 218.944 46.0453 219.776 45.512C220.629 44.9573 221.675 44.68 222.912 44.68C223.232 44.68 223.552 44.712 223.872 44.776C224.192 44.8187 224.459 44.8933 224.672 45L224.192 48.008C223.957 47.9227 223.691 47.8587 223.392 47.816C223.115 47.752 222.731 47.72 222.24 47.72C221.579 47.72 220.928 47.9013 220.288 48.264C219.648 48.6053 219.115 49.128 218.688 49.832C218.283 50.536 218.08 51.432 218.08 52.52V61H214.656ZM234.54 61.32C232.94 61.32 231.532 60.9893 230.316 60.328C229.1 59.6667 228.15 58.7173 227.468 57.48C226.806 56.2213 226.476 54.728 226.476 53C226.476 51.272 226.806 49.7893 227.468 48.552C228.15 47.2933 229.089 46.3333 230.284 45.672C231.478 45.0107 232.833 44.68 234.348 44.68C235.905 44.68 237.228 45 238.316 45.64C239.404 46.28 240.236 47.1547 240.812 48.264C241.388 49.3733 241.676 50.632 241.676 52.04C241.676 52.424 241.665 52.7867 241.644 53.128C241.622 53.4693 241.59 53.768 241.548 54.024H228.684V51.4H240.044L238.348 51.912C238.348 50.4613 237.985 49.352 237.26 48.584C236.534 47.7947 235.542 47.4 234.284 47.4C233.366 47.4 232.566 47.6133 231.884 48.04C231.201 48.4667 230.678 49.1067 230.316 49.96C229.953 50.792 229.772 51.816 229.772 53.032C229.772 54.2267 229.964 55.24 230.348 56.072C230.732 56.904 231.276 57.5333 231.98 57.96C232.684 58.3867 233.516 58.6 234.476 58.6C235.542 58.6 236.406 58.3973 237.068 57.992C237.729 57.5867 238.252 57.0213 238.636 56.296L241.356 57.576C240.972 58.344 240.449 59.016 239.788 59.592C239.148 60.1467 238.38 60.5733 237.484 60.872C236.588 61.1707 235.606 61.32 234.54 61.32ZM253.04 61.32C251.44 61.32 250.032 60.9893 248.816 60.328C247.6 59.6667 246.65 58.7173 245.968 57.48C245.306 56.2213 244.976 54.728 244.976 53C244.976 51.272 245.306 49.7893 245.968 48.552C246.65 47.2933 247.589 46.3333 248.784 45.672C249.978 45.0107 251.333 44.68 252.848 44.68C254.405 44.68 255.728 45 256.816 45.64C257.904 46.28 258.736 47.1547 259.312 48.264C259.888 49.3733 260.176 50.632 260.176 52.04C260.176 52.424 260.165 52.7867 260.144 53.128C260.122 53.4693 260.09 53.768 260.048 54.024H247.184V51.4H258.544L256.848 51.912C256.848 50.4613 256.485 49.352 255.76 48.584C255.034 47.7947 254.042 47.4 252.784 47.4C251.866 47.4 251.066 47.6133 250.384 48.04C249.701 48.4667 249.178 49.1067 248.816 49.96C248.453 50.792 248.272 51.816 248.272 53.032C248.272 54.2267 248.464 55.24 248.848 56.072C249.232 56.904 249.776 57.5333 250.48 57.96C251.184 58.3867 252.016 58.6 252.976 58.6C254.042 58.6 254.906 58.3973 255.568 57.992C256.229 57.5867 256.752 57.0213 257.136 56.296L259.856 57.576C259.472 58.344 258.949 59.016 258.288 59.592C257.648 60.1467 256.88 60.5733 255.984 60.872C255.088 61.1707 254.106 61.32 253.04 61.32Z" fill="black"/>
<path d="M280.268 39.2702C280.072 38.7538 279.495 38.4941 278.978 38.6901L270.564 41.8834C270.048 42.0793 269.788 42.6568 269.984 43.1731C270.18 43.6895 270.757 43.9492 271.274 43.7533L278.753 40.9148L281.592 48.3942C281.788 48.9106 282.365 49.1703 282.881 48.9744C283.398 48.7784 283.657 48.201 283.462 47.6846L280.268 39.2702ZM270.912 60.7852L280.245 40.0352L278.421 39.2148L269.088 59.9648L270.912 60.7852Z" fill="black"/>
</svg>
