<svg width="26" height="17" viewBox="0 0 26 17" fill="none" xmlns="http://www.w3.org/2000/svg">
<rect y="0.796875" width="26" height="16" fill="#848895"/>
<path d="M19.9109 5.04863C19.3904 5.27965 18.8381 5.43101 18.2726 5.49765C18.8685 5.14141 19.3143 4.58042 19.5268 3.91946C18.9669 4.25191 18.3543 4.48614 17.7155 4.61204C17.4487 4.32728 17.1262 4.10038 16.7681 3.94541C16.4099 3.79045 16.0238 3.71072 15.6336 3.71118C14.0585 3.71118 12.7814 4.98824 12.7814 6.5636C12.7814 6.78684 12.8065 7.00443 12.8554 7.21356C10.4847 7.09446 8.38271 5.95908 6.97583 4.23329C6.72209 4.66862 6.58883 5.16366 6.58975 5.66754C6.58975 6.65701 7.09324 7.53021 7.85862 8.04159C7.40566 8.02722 6.96269 7.90482 6.56661 7.68458L6.56633 7.72071C6.56633 9.10247 7.54959 10.2551 8.85458 10.5175C8.43439 10.6313 7.99381 10.6479 7.56624 10.5661C7.92946 11.6992 8.98271 12.5241 10.2307 12.547C9.22039 13.3401 7.97265 13.7702 6.68825 13.7682C6.45824 13.7682 6.23105 13.7546 6.00781 13.7281C7.31198 14.5663 8.82996 15.0112 10.3803 15.0097C15.6271 15.0097 18.4958 10.6634 18.4958 6.89408C18.4958 6.77047 18.4933 6.64714 18.4879 6.52465C19.0465 6.12142 19.5284 5.62154 19.9109 5.04863Z" fill="black"/>
</svg>
