<svg width="103" height="19" viewBox="0 0 103 19" fill="none" xmlns="http://www.w3.org/2000/svg">
<path d="M8.84504 4.1L5.30504 10.13V14H4.10504V10.13L0.565039 4.1H1.99004L3.91004 7.49L4.70504 8.9L5.50004 7.49L7.42004 4.1H8.84504ZM14.3161 3.95C15.2561 3.95 16.0661 4.16 16.7461 4.58C17.4361 4.99 17.9661 5.575 18.3361 6.335C18.7161 7.095 18.9061 8 18.9061 9.05C18.9061 10.1 18.7161 11.005 18.3361 11.765C17.9661 12.525 17.4361 13.115 16.7461 13.535C16.0661 13.945 15.2561 14.15 14.3161 14.15C13.3761 14.15 12.5611 13.945 11.8711 13.535C11.1911 13.115 10.6611 12.525 10.2811 11.765C9.91105 11.005 9.72605 10.1 9.72605 9.05C9.72605 8 9.91105 7.095 10.2811 6.335C10.6611 5.575 11.1911 4.99 11.8711 4.58C12.5611 4.16 13.3761 3.95 14.3161 3.95ZM14.3161 5.075C13.6361 5.075 13.0461 5.235 12.5461 5.555C12.0461 5.865 11.6611 6.32 11.3911 6.92C11.1211 7.51 10.9861 8.22 10.9861 9.05C10.9861 9.88 11.1211 10.595 11.3911 11.195C11.6611 11.785 12.0461 12.24 12.5461 12.56C13.0461 12.87 13.6361 13.025 14.3161 13.025C15.0061 13.025 15.5961 12.87 16.0861 12.56C16.5861 12.24 16.9711 11.785 17.2411 11.195C17.5111 10.595 17.6461 9.88 17.6461 9.05C17.6461 8.22 17.5111 7.51 17.2411 6.92C16.9711 6.32 16.5861 5.865 16.0861 5.555C15.5961 5.235 15.0061 5.075 14.3161 5.075ZM29.1218 4.1V10.31C29.1218 11.58 28.7868 12.54 28.1168 13.19C27.4468 13.83 26.4868 14.15 25.2368 14.15C23.9968 14.15 23.0368 13.83 22.3568 13.19C21.6868 12.54 21.3518 11.58 21.3518 10.31V4.1H22.5518V10.01C22.5518 11.04 22.7668 11.8 23.1968 12.29C23.6368 12.78 24.3168 13.025 25.2368 13.025C26.1568 13.025 26.8318 12.78 27.2618 12.29C27.7018 11.8 27.9218 11.04 27.9218 10.01V4.1H29.1218ZM39.1269 4.1V5.225H35.6769V14H34.4769V5.225H31.0269V4.1H39.1269ZM48.7946 4.1V10.31C48.7946 11.58 48.4596 12.54 47.7896 13.19C47.1196 13.83 46.1596 14.15 44.9096 14.15C43.6696 14.15 42.7096 13.83 42.0296 13.19C41.3596 12.54 41.0246 11.58 41.0246 10.31V4.1H42.2246V10.01C42.2246 11.04 42.4396 11.8 42.8696 12.29C43.3096 12.78 43.9896 13.025 44.9096 13.025C45.8296 13.025 46.5046 12.78 46.9346 12.29C47.3746 11.8 47.5946 11.04 47.5946 10.01V4.1H48.7946ZM51.8397 14V4.1H55.3647C56.5347 4.1 57.3897 4.345 57.9297 4.835C58.4697 5.325 58.7397 5.99 58.7397 6.83C58.7397 7.33 58.5947 7.785 58.3047 8.195C58.0147 8.595 57.6047 8.85 57.0747 8.96V8.975C57.6647 9.085 58.1297 9.355 58.4697 9.785C58.8197 10.205 58.9947 10.685 58.9947 11.225C58.9947 12.065 58.6797 12.74 58.0497 13.25C57.4197 13.75 56.5197 14 55.3497 14H51.8397ZM53.0397 12.875H55.6347C56.3447 12.875 56.8697 12.73 57.2097 12.44C57.5597 12.15 57.7347 11.745 57.7347 11.225C57.7347 10.695 57.5597 10.29 57.2097 10.01C56.8697 9.72 56.3447 9.575 55.6347 9.575H53.0397V12.875ZM53.0397 8.45H55.3797C56.7797 8.45 57.4797 7.91 57.4797 6.83C57.4797 5.76 56.7797 5.225 55.3797 5.225H53.0397V8.45ZM61.6395 14V4.1H68.5845V5.225H62.8395V8.42H67.3095V9.545H62.8395V12.875H68.8095V14H61.6395Z" fill="white"/>
<g clip-path="url(#clip0_23_1054)">
<path d="M101.832 3.53696C101.548 2.47094 100.711 1.63151 99.6485 1.34662C97.7224 0.828857 89.9984 0.828857 89.9984 0.828857C89.9984 0.828857 82.2745 0.828857 80.3483 1.34662C79.2856 1.63151 78.4486 2.47094 78.1646 3.53696C77.6484 5.46901 77.6484 9.50009 77.6484 9.50009C77.6484 9.50009 77.6484 13.5312 78.1646 15.4634C78.4486 16.5293 79.2856 17.3687 80.3483 17.6537C82.2745 18.1714 89.9984 18.1714 89.9984 18.1714C89.9984 18.1714 97.7224 18.1714 99.6485 17.6537C100.711 17.3687 101.548 16.5293 101.832 15.4634C102.348 13.5312 102.348 9.50009 102.348 9.50009C102.348 9.50009 102.348 5.46901 101.832 3.53696Z" fill="#ED1D24"/>
<path d="M87.4727 13.1601L93.9284 9.50029L87.4727 5.84015V13.1601Z" fill="white"/>
</g>
<defs>
<clipPath id="clip0_23_1054">
<rect width="26" height="19" fill="white" transform="translate(77)"/>
</clipPath>
</defs>
</svg>
