<svg width="26" height="17" viewBox="0 0 26 17" fill="none" xmlns="http://www.w3.org/2000/svg">
<rect y="0.796875" width="26" height="16" fill="#848895"/>
<path d="M20.532 5.66346C20.532 5.53013 20.332 4.46346 19.8654 3.99679C19.2654 3.33013 18.5987 3.26346 18.2654 3.26346H18.1987C16.132 3.13013 13.0654 3.13013 12.9987 3.13013C12.9987 3.13013 9.86536 3.13013 7.7987 3.26346H7.73203C7.3987 3.26346 6.73203 3.33013 6.13203 3.99679C5.66536 4.53013 5.46536 5.59679 5.46536 5.73013C5.46536 5.79679 5.33203 6.99679 5.33203 8.26346V9.39679C5.33203 10.6635 5.46536 11.8635 5.46536 11.9301C5.46536 12.0635 5.66536 13.1301 6.13203 13.5968C6.66536 14.1968 7.33203 14.2635 7.73203 14.3301H7.93203C9.13203 14.4635 12.7987 14.4635 12.932 14.4635C12.932 14.4635 16.0654 14.4635 18.132 14.3301H18.1987C18.532 14.2635 19.1987 14.1968 19.7987 13.5968C20.2654 13.0635 20.4654 11.9968 20.4654 11.8635C20.4654 11.7968 20.5987 10.5968 20.5987 9.33013V8.19679C20.6654 6.99679 20.532 5.73013 20.532 5.66346ZM15.5987 8.93013L11.5987 11.0635C11.532 11.0635 11.532 11.1301 11.4654 11.1301C11.3987 11.1301 11.332 11.1301 11.332 11.0635C11.2654 10.9968 11.1987 10.9301 11.1987 10.7968V6.46346C11.1987 6.33013 11.2654 6.26346 11.332 6.19679C11.3987 6.13013 11.532 6.13013 11.6654 6.19679L15.6654 8.33013C15.7987 8.39679 15.8654 8.46346 15.8654 8.59679C15.8654 8.73013 15.732 8.86346 15.5987 8.93013Z" fill="black"/>
</svg>
